<?xml version="1.0" encoding="UTF-8" standalone="no"?>
<svg
   id="Layer_1"
   viewBox="0 0 90.126988 153.97951"
   version="1.1"
   xmlns="http://www.w3.org/2000/svg"
   xmlns:svg="http://www.w3.org/2000/svg">
  <path
     d="m 87.468495,146.38976 c -29.84,13.91 -65.3,1 -79.2100008,-28.83 -10.47,-22.450002 -5.75,-48.110002 9.9600008,-65.350002 0.27,-0.3 0.55,-0.6 0.83,-0.9 5,-5.27 11.06,-9.71 18.04,-12.96 l 8.78,18.84 c -3.91,1.83 -7.38,4.22 -10.35,7.04 -11.79,11.18 -15.71,29.05 -8.47,44.570002 9.06,19.43 32.17,27.83 51.63,18.75 l 4.8,10.29 z"
     id="path1"
     style="fill:#ffffff;fill-opacity:1;stroke:#000000;stroke-width:4;stroke-linecap:round;stroke-linejoin:miter;stroke-dasharray:none;stroke-dashoffset:0;stroke-opacity:1;paint-order:normal" />
  <path
     d="m 71.908495,101.76976 c -0.27,0.3 -0.55,0.59 -0.82,0.89 -5,5.27 -11.06,9.71 -18.04,12.97 l -8.78,-18.840002 c 3.91,-1.83 7.38,-4.22 10.35,-7.04 11.79,-11.18 15.71,-29.05 8.47,-44.56 -9.07,-19.44 -32.18,-27.84 -51.64,-18.77 l -4.8000008,-10.28 -3.99,-8.5500005 c 29.8400008,-13.91 65.3000008,-1 79.2100008,28.8300005 10.47,22.46 5.75,48.1 -9.96,65.350002 z"
     id="path2"
     style="mix-blend-mode:normal;fill:#000000;fill-opacity:1;stroke:#ffffff;stroke-width:4;stroke-linecap:square;stroke-linejoin:miter;stroke-dasharray:none;stroke-dashoffset:0;stroke-opacity:1;paint-order:normal" />
</svg>
