<?xml version="1.0" encoding="UTF-8"?><svg id="Layer_1" xmlns="http://www.w3.org/2000/svg" viewBox="0 0 460.89 150"><defs><style>.cls-1{font-size:25px;letter-spacing:0em;}.cls-1,.cls-2{fill:#6561a0;}.cls-3{fill:#ec7223;}.cls-3,.cls-4{stroke-width:0px;}.cls-2,.cls-5{font-size:57px;}.cls-6{font-family:Consolas-Bold, Consolas;font-weight:700;}.cls-5{fill:#ee7324;letter-spacing:0em;}.cls-4{fill:#655f9e;}</style></defs><path class="cls-4" d="m84.81,144.4c-29.84,13.91-65.3,1-79.21-28.83C-4.87,93.12-.15,67.46,15.56,50.22c.27-.3.55-.6.83-.9,5-5.27,11.06-9.71,18.04-12.96l8.78,18.84c-3.91,1.83-7.38,4.22-10.35,7.04-11.79,11.18-15.71,29.05-8.47,44.57,9.06,19.43,32.17,27.83,51.63,18.75l4.8,10.29,3.99,8.55h0Z"/><path class="cls-3" d="m69.25,99.78c-.27.3-.55.59-.82.89-5,5.27-11.06,9.71-18.04,12.97l-8.78-18.84c3.91-1.83,7.38-4.22,10.35-7.04,11.79-11.18,15.71-29.05,8.47-44.56C51.36,23.76,28.25,15.36,8.79,24.43L3.99,14.15,0,5.6c29.84-13.91,65.3-1,79.21,28.83,10.47,22.46,5.75,48.1-9.96,65.35h0Z"/><text class="cls-6" transform="translate(102.42 91)"><tspan class="cls-2" x="0" y="0">Code</tspan><tspan class="cls-1" x="125.35" y="0"> </tspan><tspan class="cls-5" x="139.1" y="0">Crafter</tspan></text></svg>