<?xml version="1.0" encoding="UTF-8" standalone="no"?>
<svg
   viewBox="0 0 128 128"
   version="1.1"
   id="svg3"
   sodipodi:docname="bash.svg"
   inkscape:version="1.4 (e7c3feb100, 2024-10-09)"
   xmlns:inkscape="http://www.inkscape.org/namespaces/inkscape"
   xmlns:sodipodi="http://sodipodi.sourceforge.net/DTD/sodipodi-0.dtd"
   xmlns="http://www.w3.org/2000/svg"
   xmlns:svg="http://www.w3.org/2000/svg">
  <defs
     id="defs3" />
  <sodipodi:namedview
     id="namedview3"
     pagecolor="#ffffff"
     bordercolor="#000000"
     borderopacity="0.25"
     inkscape:showpageshadow="2"
     inkscape:pageopacity="0.0"
     inkscape:pagecheckerboard="0"
     inkscape:deskcolor="#d1d1d1"
     inkscape:zoom="6.2421875"
     inkscape:cx="63.9199"
     inkscape:cy="64"
     inkscape:window-width="1920"
     inkscape:window-height="1008"
     inkscape:window-x="0"
     inkscape:window-y="0"
     inkscape:window-maximized="1"
     inkscape:current-layer="svg3" />
  <path
     fill="none"
     d="M4.24 4.24h119.53v119.53H4.24z"
     id="path1" />
  <path
     fill="#293138"
     d="M109.01 28.64L71.28 6.24c-2.25-1.33-4.77-2-7.28-2s-5.03.67-7.28 2.01l-37.74 22.4c-4.5 2.67-7.28 7.61-7.28 12.96v44.8c0 5.35 2.77 10.29 7.28 12.96l37.73 22.4c2.25 1.34 4.76 2 7.28 2 2.51 0 5.03-.67 7.28-2l37.74-22.4c4.5-2.67 7.28-7.62 7.28-12.96V41.6c0-5.34-2.77-10.29-7.28-12.96zM79.79 98.59l.06 3.22c0 .39-.25.83-.55.99l-1.91 1.1c-.3.15-.56-.03-.56-.42l-.03-3.17c-1.63.68-3.29.84-4.34.42-.2-.08-.29-.37-.21-.71l.69-2.91c.06-.23.18-.46.34-.6.06-.06.12-.1.18-.13.11-.06.22-.07.31-.03 1.14.38 2.59.2 3.99-.5 1.78-.9 2.97-2.72 2.95-4.52-.02-1.64-.9-2.31-3.05-2.33-2.74.01-5.3-.53-5.34-4.57-.03-3.32 1.69-6.78 4.43-8.96l-.03-3.25c0-.4.24-.84.55-1l1.85-1.18c.3-.15.56.04.56.43l.03 3.25c1.36-.54 2.54-.69 3.61-.44.23.06.34.38.24.75l-.72 2.88c-.06.22-.18.44-.33.58a.77.77 0 01-.19.14c-.1.05-.19.06-.28.05-.49-.11-1.65-.36-3.48.56-1.92.97-2.59 2.64-2.58 3.88.02 1.48.77 1.93 3.39 1.97 3.49.06 4.99 1.58 5.03 5.09.05 3.44-1.79 7.15-4.61 9.41zm26.34-60.5l-35.7 22.05c-4.45 2.6-7.73 5.52-7.74 10.89v43.99c0 3.21 1.3 5.29 3.29 5.9-.65.11-1.32.19-1.98.19-2.09 0-4.15-.57-5.96-1.64l-37.73-22.4c-3.69-2.19-5.98-6.28-5.98-10.67V41.6c0-4.39 2.29-8.48 5.98-10.67l37.74-22.4c1.81-1.07 3.87-1.64 5.96-1.64s4.15.57 5.96 1.64l37.74 22.4c3.11 1.85 5.21 5.04 5.8 8.63-1.27-2.67-4.09-3.39-7.38-1.47z"
     id="path2" />
  <path
     fill="#4FA847"
     d="M99.12 90.73l-9.4 5.62c-.25.15-.43.31-.43.61v2.46c0 .3.2.43.45.28l9.54-5.8c.25-.15.29-.42.29-.72v-2.17c0-.3-.2-.42-.45-.28z"
     id="path3" />
  <path
     style="fill:#ffffff;fill-opacity:1;stroke-width:0.640801;stroke-linecap:square"
     d="m 62.778744,120.92081 c -1.330822,-0.12106 -2.777586,-0.55529 -4.06941,-1.2214 -2.042044,-1.05295 -38.966692,-23.0945 -39.775533,-23.743342 -1.773222,-1.42245 -3.045216,-3.300477 -3.905784,-5.76667 L 14.498123,88.670839 V 64 39.329161 l 0.515136,-1.474508 C 15.881067,35.370671 17.1737,33.455232 18.934622,32.043932 19.978119,31.207614 58.07863,8.5574712 59.494908,7.931491 c 2.887441,-1.2762189 6.71889,-1.1911248 9.496299,0.2109067 1.038167,0.5240647 38.085623,22.4866443 39.414303,23.3656993 1.1144,0.737293 2.60822,2.3605 3.40208,3.696752 0.5993,1.008781 1.53482,3.375977 1.39102,3.519781 -0.0343,0.03425 -0.21482,-0.151941 -0.40125,-0.413762 -0.56552,-0.794199 -1.80407,-1.30461 -3.16573,-1.30461 -1.65547,0 -2.4839,0.359786 -6.46267,2.806734 -19.21503,11.817256 -34.897547,21.571481 -35.851041,22.298662 -1.636763,1.248272 -2.834254,2.632781 -3.57312,4.13115 -1.175402,2.383633 -1.116576,0.882677 -1.069033,27.276226 l 0.04263,23.66745 0.379803,0.94211 c 0.401119,0.99499 1.238433,2.04718 1.998416,2.51127 l 0.455818,0.27835 -0.779576,0.0565 c -0.428768,0.0311 -1.326119,0.007 -1.994115,-0.0539 z"
     id="path5" />
  <path
     style="fill:#ffffff;fill-opacity:1;stroke-width:0.640801;stroke-linecap:square"
     d="m 77.00292,103.70296 c -0.05874,-0.0587 -0.1068,-0.85173 -0.1068,-1.7622 0,-0.91047 -0.02451,-1.6554 -0.05447,-1.6554 -0.02996,0 -0.624704,0.14809 -1.321652,0.32909 -1.351322,0.35094 -2.771646,0.31827 -3.094862,-0.0712 -0.11958,-0.14408 -0.05305,-0.677162 0.230804,-1.849464 0.219345,-0.905869 0.463084,-1.761888 0.541643,-1.902265 0.115091,-0.205655 0.449263,-0.256751 1.720438,-0.26306 1.393411,-0.0069 1.695102,-0.06209 2.583985,-0.472562 1.25233,-0.578305 2.603904,-1.973971 2.979718,-3.076922 0.325948,-0.956604 0.333527,-2.338046 0.01619,-2.9517 -0.376986,-0.729012 -1.037896,-0.971848 -3.022169,-1.110429 -2.275328,-0.158909 -3.044713,-0.397242 -3.883042,-1.202849 -0.923602,-0.887552 -1.258076,-2.048197 -1.135496,-3.940242 0.172424,-2.661394 1.368204,-5.252558 3.358751,-7.278157 l 1.101997,-1.121402 -0.106892,-1.387433 c -0.157814,-2.048407 -0.0767,-2.262007 1.178758,-3.104231 1.610873,-1.080652 1.629703,-1.067707 1.629703,1.120352 v 1.835197 l 0.627444,-0.221375 c 0.901181,-0.317955 2.00617,-0.457716 2.655592,-0.335884 0.441982,0.08292 0.561086,0.180701 0.558559,0.45858 -0.0051,0.558433 -0.745973,3.301732 -0.962021,3.562054 -0.137047,0.165132 -0.522637,0.235443 -1.291177,0.235443 -1.946668,0 -3.763855,0.94755 -4.68999,2.445538 -0.359007,0.58068 -0.483375,1.007013 -0.544995,1.868233 -0.07665,1.071303 -0.06085,1.134848 0.395628,1.591329 0.505574,0.505574 0.545549,0.514692 3.440848,0.784809 3.263476,0.304467 4.45592,1.681895 4.45592,5.147169 0,2.899074 -1.380606,6.057521 -3.636168,8.318552 l -0.849439,0.851498 v 1.664121 c 0,0.91526 -0.07545,1.82971 -0.167675,2.0321 -0.09222,0.2024 -0.640467,0.63833 -1.218323,0.96874 -1.097022,0.62727 -1.215436,0.66932 -1.390807,0.49395 z"
     id="path6" />
</svg>
