<?xml version="1.0" encoding="UTF-8" standalone="no"?><svg
   version="1.1"
   x="0px"
   y="0px"
   viewBox="0 0 500 500"
   style="enable-background:new 0 0 500 500;"
   xml:space="preserve" xmlns="http://www.w3.org/2000/svg" xmlns:svg="http://www.w3.org/2000/svg"><rect
   style="fill:#ffffff;stroke-width:4;stroke-linecap:square;fill-opacity:1"
   id="rect1"
   width="311.83408"
   height="270.11478"
   x="113.13708"
   y="153.44217" /><path
   data-name="original"
   fill="#007acc"
   d="m 67.492189,250.00391 v 182.5 H 432.49219 V 67.503906 H 67.492189 Z m 294.131601,-14.6 a 45.4352,45.4352 0 0 1 22.8344,13.14 60.0936,60.0936 0 0 1 8.76,11.68 c 0,0.4672 -15.768,11.1252 -25.3748,17.082 -0.3504,0.2336 -1.752,-1.2848 -3.2996,-3.5916 a 20.7028,20.7028 0 0 0 -17.1404,-10.3076 c -11.0668,-0.7592 -18.1916,5.0516 -18.1332,14.6 a 13.3736,13.3736 0 0 0 1.5768,6.8328 c 2.4236,5.0516 6.9496,8.0592 21.1408,14.1912 26.134,11.242 37.3176,18.6588 44.2672,29.2 7.7672,11.68 9.49,30.5432 4.234,44.5008 -5.84,15.184 -20.148,25.4916 -40.3836,28.908 a 111.8944,111.8944 0 0 1 -27.7984,-0.292 67.16,67.16 0 0 1 -37.1424,-19.3596 c -3.358,-3.7084 -9.8988,-13.3736 -9.49,-14.0744 a 27.2728,27.2728 0 0 1 3.358,-2.1316 l 13.5196,-7.4752 10.4828,-6.0736 2.19,3.2412 a 48.9976,48.9976 0 0 0 13.8408,13.2568 c 11.68,6.132 27.6232,5.2852 35.5072,-1.8104 a 15.8556,15.8556 0 0 0 2.0148,-20.2064 c -2.92,-4.0588 -8.76,-7.4752 -25.0828,-14.6 -18.834,-8.1176 -26.9516,-13.14 -34.3684,-21.1408 a 48.1216,48.1216 0 0 1 -10.0156,-18.25 73,73 0 0 1 -0.6424,-23.36 c 3.8836,-18.1916 17.52,-30.8936 37.4344,-34.6604 a 92.4472,92.4472 0 0 1 27.7108,0.7592 z m -85.6728,15.3008 v 14.9504 h -47.3916 v 134.9916 h -33.6092 v -135.0208 h -47.5084 v -14.6 a 143.6348,143.6348 0 0 1 0.3504,-15.0964 c 0.2336,-0.2628 29.2,-0.2628 64.24,-0.2628 h 63.7436 z"
   id="path2"
   style="display:inline;stroke-width:2.92" /></svg>
